<?xml version="1.0" encoding="utf-8"?>
<!-- Generator: Adobe Illustrator 20.1.0, SVG Export Plug-In . SVG Version: 6.00 Build 0)  -->
<svg version="1.1" id="Layer_1" xmlns="http://www.w3.org/2000/svg" xmlns:xlink="http://www.w3.org/1999/xlink" x="0px" y="0px"
	 viewBox="0 0 500 500" style="enable-background:new 0 0 500 500;" xml:space="preserve">
<style type="text/css">
	.st0{fill:#3F97D0;}
	.st1{fill:#FFD243;}
	.st2{fill:#F2784F;}
	.st3{fill:#4277BA;}
</style>
<g id="XMLID_2035_">
	<path id="XMLID_1700_" class="st0" d="M405.4,161.6h33.8c11.3,0,20.4-9.1,20.4-20.4V85.7c0-11.3-9.1-20.4-20.4-20.4h-33.8
		C405.4,65.3,405.4,63.7,405.4,161.6"/>
	<path id="XMLID_1727_" class="st1" d="M405.4,257.9h33.8c11.3,0,20.4-9.1,20.4-20.4V182c0-11.3-9.1-20.4-20.4-20.4h-33.8V257.9z"/>
	<path id="XMLID_1747_" class="st2" d="M405.4,354.2h33.8c11.3,0,20.4-9.1,20.4-20.4v-55.4c0-11.3-9.1-20.4-20.4-20.4h-33.8V354.2z"
		/>
</g>
<path id="XMLID_1774_" class="st0" d="M205.9,294.1c40.9,40.9,72.3,48,93.6,46.2c28.1-2.3,53.6-26.2,50.2-39.2
	c-3.4-13-30.6-35.2-40.3-35.2c-15.9,0-26.7,24.7-39.4,29.5c-12.8,4.8-33.5-13.4-39.7-19.2c-6.2-5.8-23.3-25.9-18.4-38.7
	c4.8-12.8,29.6-23.5,29.5-39.4c0-9.7-22.2-36.9-35.2-40.3c-12.9-3.4-36.9,22.1-39.2,50.2C165.3,229.5,165.1,253.3,205.9,294.1z"/>
<g id="XMLID_1801_">
	<path id="XMLID_1802_" class="st3" d="M376.4,29H116.9c-21.5,0-38.9,17.5-38.9,38.9v35.5H51.6c-5.5,0-10,4.5-10,10s4.5,10,10,10
		h56.2c5.5,0,10-4.5,10-10s-4.5-10-10-10h-9.9V67.9c0-10.4,8.5-18.9,18.9-18.9h259.6c10.4,0,18.9,8.5,18.9,18.9v364.5
		c0,10.4-8.5,18.9-18.9,18.9H116.9c-10.4,0-18.9-8.5-18.9-18.9v-17.5h-20v17.5c0,21.5,17.5,38.9,38.9,38.9h259.6
		c21.5,0,38.9-17.5,38.9-38.9V67.9C415.4,46.5,397.9,29,376.4,29z"/>
	<path id="XMLID_1822_" class="st3" d="M77.9,142.4v29.2H51.6c-5.5,0-10,4.5-10,10s4.5,10,10,10h56.2c5.5,0,10-4.5,10-10
		s-4.5-10-10-10h-9.9v-29.2H77.9z"/>
	<path id="XMLID_1823_" class="st3" d="M51.6,259.7h56.2c5.5,0,10-4.5,10-10s-4.5-10-10-10h-9.9v-29.2h-20v29.2H51.6
		c-5.5,0-10,4.5-10,10S46.1,259.7,51.6,259.7z"/>
	<path id="XMLID_1824_" class="st3" d="M51.6,327.9h56.2c5.5,0,10-4.5,10-10s-4.5-10-10-10h-9.9v-29.2h-20v29.2H51.6
		c-5.5,0-10,4.5-10,10S46.1,327.9,51.6,327.9z"/>
	<path id="XMLID_1831_" class="st3" d="M117.8,386c0-5.5-4.5-10-10-10h-9.9v-29.2h-20V376H51.6c-5.5,0-10,4.5-10,10s4.5,10,10,10
		h56.2C113.4,396,117.8,391.5,117.8,386z"/>
</g>
</svg>
